<?xml version="1.0" standalone="no"?>
<!DOCTYPE svg PUBLIC "-//W3C//DTD SVG 20010904//EN"
 "http://www.w3.org/TR/2001/REC-SVG-20010904/DTD/svg10.dtd">
<svg version="1.0" xmlns="http://www.w3.org/2000/svg"
 width="500.000000pt" height="500.000000pt" viewBox="0 0 500.000000 500.000000"
 preserveAspectRatio="xMidYMid meet">

<g transform="translate(0.000000,500.000000) scale(0.100000,-0.100000)"
fill="#000000" stroke="none">
<path d="M2312 4310 c-362 -46 -673 -200 -938 -464 -233 -233 -372 -490 -441
-816 -26 -123 -26 -488 0 -610 47 -215 147 -450 263 -612 l55 -78 1249 0 1249
0 56 78 c62 86 172 303 205 402 53 160 72 268 77 456 6 198 -4 302 -42 454
-133 528 -541 959 -1064 1124 -197 62 -477 90 -669 66z m493 -100 c143 -30
233 -62 370 -130 321 -160 575 -427 717 -754 185 -427 162 -925 -63 -1331 -27
-49 -65 -111 -85 -138 l-34 -47 -1213 2 -1212 3 -63 95 c-264 402 -312 943
-122 1398 183 439 579 778 1038 888 155 38 211 43 397 39 122 -3 198 -10 270
-25z"/>
<path d="M2770 3210 l0 -500 -399 0 -400 0 -3 28 -3 27 -130 0 -130 0 -3 -27
c-3 -22 -9 -28 -27 -28 -18 0 -24 6 -27 28 l-3 27 -119 3 c-124 3 -152 -5
-143 -39 4 -15 -3 -18 -42 -21 l-46 -3 0 -435 0 -435 1160 0 1160 0 3 938 2
937 -425 0 -425 0 0 -500z m820 30 l0 -450 -395 0 -395 0 0 450 0 450 395 0
395 0 0 -450z m0 -930 l0 -450 -395 0 -395 0 0 450 0 450 395 0 395 0 0 -450z
m-1970 415 c0 -12 -18 -15 -105 -15 -87 0 -105 3 -105 15 0 12 18 15 105 15
87 0 105 -3 105 -15z m320 0 c0 -12 -18 -15 -105 -15 -87 0 -105 3 -105 15 0
12 18 15 105 15 87 0 105 -3 105 -15z m90 -55 c0 -6 -125 -10 -355 -10 -230 0
-355 4 -355 10 0 6 125 10 355 10 230 0 355 -4 355 -10z m58 3 c-14 -3 -18
-15 -18 -49 l0 -44 345 0 345 0 0 44 c0 26 -5 46 -12 49 -8 3 -6 6 5 6 16 1
17 -22 17 -354 l0 -355 -355 0 -355 0 0 355 0 355 23 -1 c16 -1 18 -2 5 -6z
m642 -43 c0 -20 -7 -20 -315 -20 -308 0 -315 0 -315 20 0 20 7 20 315 20 308
0 315 0 315 -20z m-895 -17 c-8 -8 -15 -18 -15 -22 0 -16 30 -33 45 -27 25 9
30 37 10 52 -17 13 -16 14 13 14 29 0 31 -2 20 -19 -9 -15 -9 -23 1 -35 18
-22 38 -20 51 3 7 15 6 23 -6 35 -14 15 -11 16 30 16 l46 0 0 -40 0 -40 -355
0 -355 0 0 40 0 40 248 2 c136 2 255 1 264 -1 15 -3 15 -5 3 -18z m195 -368
l0 -275 -355 0 -355 0 0 275 0 275 355 0 355 0 0 -275z m740 -346 l0 -39 -355
0 -355 0 0 40 0 40 348 2 c191 2 350 2 355 0 4 -2 7 -21 7 -43z m-740 1 l0
-40 -355 0 -355 0 0 40 0 40 355 0 355 0 0 -40z"/>
<path d="M2867 3143 c-7 -13 -8 -198 -1 -216 16 -42 24 -8 24 103 0 106 -7
140 -23 113z"/>
<path d="M2865 2698 c-10 -40 -1 -151 13 -156 9 -3 12 18 12 82 0 82 -13 121
-25 74z"/>
<path d="M2116 2338 c-13 -19 -14 -25 -2 -43 21 -31 63 -32 78 -1 9 22 8 29
-7 46 -24 26 -50 25 -69 -2z m54 -22 c0 -8 -4 -17 -8 -20 -13 -8 -35 11 -28
23 10 16 36 14 36 -3z"/>
<path d="M1347 2493 c-4 -3 -7 -116 -7 -250 l0 -243 335 0 335 0 -2 248 -3
247 -326 3 c-179 1 -328 -1 -332 -5z m635 -248 l-3 -225 -304 0 -305 0 0 225
0 225 308 0 307 0 -3 -225z"/>
<path d="M1520 3540 l0 -91 -96 -136 c-53 -75 -98 -142 -101 -150 -4 -11 58
-13 345 -13 193 0 353 3 356 8 2 4 -40 70 -94 147 l-99 140 -1 93 0 92 -155 0
-155 0 0 -90z m280 -11 l0 -69 -125 0 -125 0 0 73 0 72 125 -3 125 -3 0 -70z
m6 -104 c10 -3 174 -230 174 -241 0 -2 -138 -4 -306 -4 -168 0 -304 4 -302 9
11 28 165 241 177 243 18 4 243 -2 257 -7z"/>
<path d="M2360 3460 c0 -29 4 -40 15 -40 13 0 15 -21 15 -132 0 -117 -3 -136
-20 -158 -16 -20 -29 -88 -17 -91 1 0 21 -2 45 -5 l42 -5 0 39 c0 21 -7 47
-15 58 -11 14 -14 51 -15 157 0 85 4 137 10 137 6 0 10 18 10 40 0 39 -1 40
-35 40 -34 0 -35 -1 -35 -40z m50 5 c0 -8 -7 -15 -15 -15 -8 0 -15 7 -15 15 0
8 7 15 15 15 8 0 15 -7 15 -15z m10 -386 c0 -24 -4 -29 -25 -29 -28 0 -34 25
-14 61 14 28 39 7 39 -32z"/>
<path d="M2567 3494 c-13 -14 -7 -63 10 -72 14 -8 15 -24 10 -132 -5 -105 -9
-126 -27 -145 -27 -28 -26 -70 2 -89 30 -21 54 -20 78 4 26 26 25 42 -4 78
-23 27 -25 37 -27 152 -1 106 1 125 16 136 10 8 15 23 13 41 -2 23 -8 29 -33
31 -17 2 -34 0 -38 -4z m53 -27 c0 -19 -10 -27 -26 -20 -21 8 -17 33 6 33 11
0 20 -6 20 -13z m4 -343 c22 -21 20 -41 -4 -54 -40 -22 -80 26 -48 58 16 16
33 15 52 -4z"/>
<path d="M2485 1599 c-40 -15 -84 -57 -101 -96 -19 -43 -18 -155 1 -201 32
-75 84 -105 180 -105 87 0 147 46 171 132 29 98 -3 209 -73 252 -39 25 -134
34 -178 18z m117 -40 c31 -17 48 -71 48 -156 -1 -107 -24 -159 -75 -169 -77
-14 -120 61 -112 192 5 72 25 128 49 137 23 9 69 7 90 -4z"/>
<path d="M2949 1600 c-95 -28 -144 -137 -118 -258 20 -94 82 -144 178 -144 92
0 137 25 173 96 22 44 27 143 9 198 -29 88 -142 139 -242 108z m111 -40 c53
-28 69 -227 23 -288 -44 -60 -111 -51 -145 18 -36 70 -18 232 29 268 20 14 67
16 93 2z"/>
<path d="M3384 1591 c-77 -35 -109 -103 -102 -212 9 -121 71 -181 188 -181 61
0 102 16 137 54 71 76 70 227 -2 303 -51 55 -146 70 -221 36z m149 -53 c39
-53 41 -215 2 -274 -31 -48 -104 -43 -134 8 -41 66 -34 227 11 275 31 34 93
29 121 -9z"/>
<path d="M1320 1545 c0 -42 4 -55 15 -55 8 0 18 12 21 28 10 41 23 52 60 52
l34 0 -2 -167 c-3 -166 -3 -168 -25 -171 -13 -2 -23 -10 -23 -18 0 -11 19 -14
95 -14 76 0 95 3 95 14 0 8 -10 16 -22 18 -23 3 -23 5 -26 171 l-2 167 34 0
c37 0 52 -13 58 -50 1 -14 11 -26 21 -28 14 -3 17 5 17 52 l0 56 -175 0 -175
0 0 -55z"/>
<path d="M1702 1588 c3 -7 13 -15 24 -17 10 -2 22 -8 26 -15 12 -17 9 -285 -2
-307 -6 -10 -20 -19 -30 -19 -11 0 -20 -7 -20 -15 0 -12 18 -15 100 -15 82 0
100 3 100 15 0 8 -9 15 -20 15 -10 0 -24 9 -30 19 -10 21 -14 114 -4 123 15
16 43 -10 76 -71 47 -85 56 -93 118 -99 41 -4 50 -2 50 11 0 9 -9 19 -20 22
-16 5 -100 130 -100 149 0 4 14 19 31 34 21 19 32 39 36 68 5 36 1 46 -25 75
l-30 34 -142 3 c-115 3 -141 1 -138 -10z m220 -35 c13 -11 18 -30 18 -64 0
-57 -18 -79 -66 -79 l-34 0 0 80 0 80 32 0 c17 0 40 -7 50 -17z"/>
<path d="M2120 1586 c0 -8 10 -16 23 -18 22 -3 22 -5 22 -168 0 -163 0 -165
-22 -168 -13 -2 -23 -10 -23 -18 0 -11 19 -14 95 -14 76 0 95 3 95 14 0 8 -10
16 -22 18 -23 3 -23 5 -23 168 0 163 0 165 23 168 12 2 22 10 22 18 0 11 -19
14 -95 14 -76 0 -95 -3 -95 -14z"/>
<path d="M1998 984 c-56 -30 -62 -143 -10 -191 22 -20 34 -23 81 -21 l56 3 3
38 c2 21 10 41 18 44 7 3 11 9 8 14 -7 12 -74 11 -74 -1 0 -5 5 -10 10 -10 6
0 10 -16 10 -35 0 -34 -1 -35 -39 -35 -52 0 -71 26 -71 98 0 43 5 58 25 77 29
30 49 31 75 5 11 -11 25 -20 30 -20 16 0 11 37 -6 44 -28 11 -88 6 -116 -10z"/>
<path d="M2287 933 c-11 -11 -17 -13 -17 -5 0 7 -12 12 -27 12 -21 0 -24 -3
-15 -12 16 -16 16 -130 0 -146 -9 -9 -1 -12 37 -12 48 0 49 1 27 16 -23 16
-27 38 -16 94 7 34 31 51 44 30 9 -15 30 -5 30 15 0 12 -20 25 -39 25 -4 0
-14 -8 -24 -17z"/>
<path d="M2470 943 c-36 -13 -50 -36 -50 -82 0 -64 21 -91 69 -91 60 0 90 51
71 122 -12 44 -51 65 -90 51z m48 -25 c7 -7 12 -36 12 -65 0 -41 -4 -54 -19
-63 -25 -13 -27 -13 -45 6 -19 19 -22 104 -4 122 7 7 19 12 28 12 9 0 21 -5
28 -12z"/>
<path d="M2952 934 c-12 -8 -22 -10 -22 -5 0 6 -15 11 -32 11 -27 -1 -30 -2
-15 -11 14 -8 17 -25 17 -111 0 -84 -3 -103 -17 -114 -16 -12 -12 -13 30 -14
46 0 62 12 32 24 -10 3 -15 19 -15 43 0 29 3 34 12 25 18 -18 73 -15 89 5 8 9
14 39 14 70 0 45 -4 58 -24 74 -28 23 -40 24 -69 3z m63 -57 c9 -48 -9 -87
-40 -87 -44 0 -62 83 -25 120 27 27 57 12 65 -33z"/>
<path d="M2643 929 c13 -8 17 -24 17 -72 0 -36 5 -68 12 -75 15 -15 53 -16 79
-2 13 7 19 7 19 0 0 -5 12 -10 28 -10 24 1 25 2 10 14 -14 10 -18 28 -18 85
l0 71 -32 0 c-27 -1 -30 -2 -15 -11 13 -7 17 -23 17 -62 0 -63 -10 -80 -41
-75 -22 3 -24 8 -27 76 l-3 72 -32 0 c-27 -1 -29 -2 -14 -11z"/>
</g>
</svg>
